<?xml version="1.0" encoding="utf-8"?>
<!-- Generator: Adobe Illustrator 27.3.1, SVG Export Plug-In . SVG Version: 6.00 Build 0)  -->
<svg version="1.1" id="Layer_1" xmlns="http://www.w3.org/2000/svg" xmlns:xlink="http://www.w3.org/1999/xlink" x="0px" y="0px"
	 width="100px" height="100px" viewBox="0 0 100 100" style="enable-background:new 0 0 100 100;" xml:space="preserve">
<style type="text/css">
	.st0{fill:#FFFFFF;}
</style>
<circle cx="50" cy="50" r="49"/>
<path class="st0" d="M78.2,63.6c-0.4-0.3-0.7-0.3-1,0c-2.9,3.6-5.2,5.6-7,5.9c-1.6,0.4-2.8,0.1-3.5-0.7c-0.8-1.3-1.1-3.6-0.8-6.9
	c0.3-3.4,1-7.2,2.3-11.4c1.2-4.3,3-8.7,5.3-13.4c2.3-4.6,5-8.9,8.2-12.8c0-0.7-0.2-1-0.8-1c-1.6,0-3.5,0.3-5.7,1
	c-2.1,0.7-3.9,1.5-5.3,2.5c-2.8-2.3-6.6-3.5-11.5-3.5c-4.6,0-9.2,1.1-13.7,3.4c-4.5,2.3-8.6,5.3-12.3,8.9c-3.7,3.6-6.7,7.7-8.9,12.2
	c-2.2,4.6-3.3,9.1-3.3,13.7c0,4,0.9,7.5,2.7,10.6c1.8,3.1,4.4,4.6,7.7,4.6c4.9-0.8,9.5-3.4,13.9-7.6s8.4-9.3,12.2-15.3
	c-1.9,6.3-2.3,11.7-1.4,16.2c0.9,4.5,3,6.8,6.2,6.8c2.8,0,5.7-1,8.8-3.2c3-2.2,5.8-5.1,8.3-8.7C78.8,64.3,78.6,63.9,78.2,63.6z
	 M58.7,45.9c-2.6,4.3-5.2,8.2-7.8,11.7c-2.6,3.4-5.2,6.2-7.6,8.3C40.8,68,38.8,69,37.1,69c-1.4,0-2.6-0.9-3.7-2.8
	c-1.1-1.8-1.6-4.2-1.6-7.3c0-4.7,0.6-9,1.8-13c1.2-3.9,2.8-7.3,4.8-10.2c2-2.9,4.4-5.1,7.2-6.7c2.8-1.6,5.8-2.4,9-2.4
	c2.6,0,5,0.6,7,1.7c2.1,1.1,3.3,2.6,3.9,4.4C63.5,37.2,61.3,41.6,58.7,45.9z"/>
</svg>
